<?xml version="1.0" encoding="utf-8"?>
<!-- Generator: Adobe Illustrator 24.3.0, SVG Export Plug-In . SVG Version: 6.00 Build 0)  -->
<svg version="1.1" id="Layer_1" xmlns="http://www.w3.org/2000/svg" xmlns:xlink="http://www.w3.org/1999/xlink" x="0px" y="0px"
	 viewBox="0 0 612 792" style="enable-background:new 0 0 612 792;" xml:space="preserve">
<style type="text/css">
	.st0{fill:#5B621C;}
	.st1{fill:#843B1E;}
	.st2{fill:#E28142;}
</style>
<g>
	<path class="st0" d="M91.59,308.43c0.11,0.84,0.31,1.79,0.44,2.87c0.2,2.14,0.86,4.82,1.44,7.84c0.71,3.02,1.49,6.43,2.52,10.12
		c0.97,3.7,2.2,7.66,3.46,11.86c1.29,4.19,2.71,8.59,4.29,13.12c0.46,1.35,0.95,2.73,1.42,4.1c0.33-0.89,0.75-1.88,1.29-2.95
		c0.9-1.9,2.18-3.99,3.6-6.2c1.41-2.21,3.09-4.47,4.72-6.75c1.67-2.26,3.34-4.52,4.81-6.7c1.5-2.16,2.76-4.25,3.91-6.01
		c2.2-3.57,3.52-6.04,3.52-6.04c0.01-0.02,0.04-0.04,0.05-0.06c-14.35-12.82-27.24-18.32-36-19.09c0.09,0.24,0.28,0.82,0.3,1.71
		C91.38,306.82,91.53,307.57,91.59,308.43z"/>
	<path class="st0" d="M121.87,337.1c-1.22,2.33-2.41,4.87-3.61,7.41c-1.24,2.52-2.42,5.07-3.71,7.36c-1.27,2.29-2.51,4.41-3.75,6.11
		c-1.63,2.34-3.23,3.92-4.11,4.71c0.65,1.81,1.29,3.62,1.96,5.46c1.74,4.71,3.58,9.48,5.42,14.24c1.38,3.49,2.76,6.97,4.13,10.43
		l0.69-1.28c3.32-6.08,6.6-12.19,9.6-17.94c3.07-5.72,5.74-11.16,8.12-15.78c4.65-9.29,7.59-15.56,7.59-15.56
		c0.03-0.07,0.08-0.11,0.12-0.17c-5.28-6.63-10.51-12.24-15.58-16.94c-0.48,0.74-1.78,2.78-3.44,5.64
		C124.3,332.65,123.06,334.76,121.87,337.1z"/>
	<path class="st0" d="M163.36,377.15c-2.48,4.73-4.91,9.48-7.29,14.25c-2.5,5.17-5.05,10.31-7.38,15.55
		c-2.34,5.24-4.64,10.48-6.72,15.82c-1.87,4.78-3.67,9.57-5.39,14.39c2.48,5.67,4.72,10.33,6.43,13.71c2.04,3.92,3.3,6.12,3.3,6.12
		c0.31,0.55,0.12,1.25-0.42,1.56c-0.48,0.27-1.06,0.17-1.42-0.23l-0.02-0.03c0,0-1.75-1.93-4.37-5.66
		c-2.15-2.99-4.76-7.24-7.45-12.44c-7.32-1.41-14.54-3.35-21.57-5.86c-6.16-2.23-12.18-4.91-17.81-8.28
		c8.47,9.96,18.98,18.24,30.14,25.13c7.08,4.37,14.21,7.66,22.5,8.09c12.31-14.76,19.68-33.58,20.67-52.82
		C167.08,396.64,166,386.67,163.36,377.15z"/>
	<path class="st0" d="M130.94,374.8c-2.74,5.89-5.59,12.2-8.39,18.54c-0.72,1.59-1.44,3.18-2.15,4.76
		c-0.01,0.03-0.03,0.06-0.04,0.09c1.65,4.08,3.28,8.11,4.87,12.02c1.79,4.43,3.6,8.66,5.33,12.69c1.21,2.89,2.38,5.65,3.49,8.29
		c1.48-3.32,2.99-6.63,4.58-9.89c2.54-5.18,5.06-10.36,7.7-15.48l7.86-15.36c2.6-5.12,5.2-10.25,7.71-15.41
		c0.14-0.29,0.4-0.49,0.68-0.58c-2.53-8.11-6.24-15.85-11.11-22.81c-1.87-2.67-3.74-5.2-5.61-7.61c-0.98,1.91-3.73,7.3-7.33,14.72
		C136.31,363.46,133.61,368.88,130.94,374.8z"/>
	<path class="st0" d="M91.45,422.27c3.62,1.12,7.16,2.35,10.71,3.53l10.62,3.54c3.55,1.14,7.09,2.3,10.67,3.31
		c2.1,0.63,4.22,1.21,6.34,1.77c-3.09-6.55-6.21-14.12-9.39-22.3c-1.49-3.74-2.93-7.61-4.35-11.56c-0.05-0.01-0.11-0.02-0.15-0.03
		c-1.36-0.35-1.89-0.63-2.76-0.91c-3.22-1.12-6.37-2.28-9.41-3.42c-6.07-2.29-11.73-4.47-16.49-6.54c-8.3-3.52-13.95-6.65-15.3-7.42
		c2.13,10.03,6.04,20.58,12.39,31.37c1.82,3.1,3.84,6.05,6.02,8.88C90.66,422.24,91.08,422.15,91.45,422.27z"/>
	<path class="st0" d="M72.46,379.94c0,0,6.85,1.5,16.63,5c4.91,1.7,10.54,3.93,16.56,6.37c2.73,1.11,5.54,2.28,8.38,3.51
		c-1.27-3.66-2.53-7.36-3.78-11.06c-1.6-4.87-3.19-9.74-4.69-14.56c-0.62-1.92-1.22-3.83-1.82-5.72c-0.15-0.04-0.3-0.09-0.48-0.14
		c-0.96-0.27-2.34-0.66-3.99-1.12c-3.33-0.92-7.76-2.15-12.2-3.38c-2.22-0.67-4.43-1.43-6.4-2.33c-1.97-0.92-3.78-1.84-5.19-2.89
		c-1.42-1.02-2.49-2.04-3.17-2.85c-0.69-0.79-1.02-1.34-1.02-1.34c-0.36-0.6-0.16-1.38,0.44-1.74c0.24-0.14,0.51-0.2,0.77-0.18
		l0.03,0c0,0,0.63,0.06,1.61,0.32c1,0.25,2.34,0.71,3.87,1.36c1.53,0.67,3.21,1.61,5.02,2.62c1.82,1,3.71,2.16,5.65,3.28
		c1.94,1.12,3.91,2.19,5.84,3.04c1.92,0.86,3.76,1.53,5.36,2.05c1.19,0.37,2.25,0.66,3.1,0.88c-0.63-2.02-1.25-4.03-1.84-6
		c-2.76-9.2-5.31-17.8-7.19-25.27c-1.01-3.71-1.78-7.16-2.5-10.21c-0.58-3.1-1.23-5.72-1.5-8.03c-0.16-1.14-0.3-2.16-0.43-3.05
		c-0.08-0.88-0.08-1.61-0.12-2.21c-0.01-0.3-0.03-0.56-0.04-0.78c-7.8,7.91-24.86,37.57-17.84,74.65
		C71.8,379.95,72.14,379.87,72.46,379.94z"/>
	<path class="st0" d="M90.14,422.73c-0.35,0.53-0.2,1.24,0.33,1.59c0.92,0.6,1.84,1.18,2.78,1.74c-0.99-1.17-1.96-2.35-2.9-3.56
		C90.28,422.57,90.2,422.64,90.14,422.73z"/>
	<path class="st0" d="M128.95,324.84c0.02-0.03,0.04-0.06,0.05-0.09c0.3-0.56,0.09-1.25-0.47-1.54c-0.53-0.28-1.18-0.1-1.49,0.41
		c0.56,0.5,1.13,1.02,1.7,1.55C128.87,324.96,128.95,324.84,128.95,324.84z"/>
	<path class="st0" d="M146.25,343.27c0.01-0.01,0.01-0.03,0.02-0.04c0.27-0.57,0.02-1.25-0.55-1.52c-0.51-0.24-1.08-0.05-1.39,0.38
		c0.51,0.64,1.02,1.29,1.52,1.95C146.11,343.55,146.25,343.27,146.25,343.27z"/>
	<path class="st0" d="M71.22,380.48c-0.32,0.55-0.14,1.26,0.41,1.58c0,0,0.11,0.06,0.32,0.18c-0.15-0.7-0.29-1.4-0.42-2.09
		C71.41,380.24,71.3,380.35,71.22,380.48z"/>
	<path class="st0" d="M163.92,376.07c0.01-0.01,0.01-0.02,0.02-0.03c0.28-0.57,0.04-1.25-0.53-1.52c-0.27-0.13-0.57-0.14-0.84-0.06
		c0.28,0.89,0.54,1.79,0.79,2.7C163.55,376.79,163.73,376.43,163.92,376.07z"/>
	<path class="st0" d="M90.48,304.47c0.18,0.01,0.38,0.03,0.56,0.05c-0.03-0.08-0.05-0.13-0.05-0.13v-0.03c0,0,0-0.01,0-0.01
		c0-0.63-0.26-1.12-0.89-1.09c-0.63,0.03-0.81,0.56-0.78,1.19c0,0,0.02,0.36,0.05,1.05C89.77,305.11,90.14,304.75,90.48,304.47z"/>
</g>
<path class="st1" d="M447.79,403.84c-1.54,26.42-10.83,51.84-22.46,75.61c-23.12,47.25-57.88,91.23-105.95,112.59
	c-48.08,21.36-110.8,14.76-145.09-25.13c-22.18-25.81-29.89-61.32-29.99-95.35c-0.18-57.83,9.29-107.13,48.77-175.2L447.79,403.84z"
	/>
<path class="st2" d="M500.75,343.03c-17.41-52.17-48.71-80.03-107.69-104.24c-0.51-0.21-1.03-0.4-1.55-0.61
	c0.95-1.26,1.85-2.56,2.61-3.94c1.94-3.07,3.36-6.37,4.7-9.65c0.57-1.65,1.14-3.3,1.7-4.94c0.48-1.64,0.86-3.27,1.28-4.89
	c0.46-1.62,0.71-3.21,1-4.78c0.28-1.57,0.59-3.13,0.78-4.64c0.37-3.01,0.72-5.97,0.87-8.69c0.2-2.74,0.33-5.33,0.34-7.72
	c0.1-4.81-0.06-8.73-0.27-11.43c-0.18-2.73-0.37-4.3-0.37-4.3c-0.27-2.17-1.74-4.12-3.96-4.88c-3.09-1.05-6.44,0.6-7.49,3.69
	c0,0-0.51,1.5-1.24,4.13c-0.36,1.32-0.82,2.92-1.26,4.75c-0.48,1.79-1.04,3.8-1.54,6c-0.49,2.21-1.2,4.55-1.73,7.06
	c-0.52,2.53-1.36,5.04-1.95,7.72c-0.76,2.59-1.4,5.33-2.26,7.92c-0.42,1.3-0.84,2.6-1.26,3.91l-1.41,3.75
	c-1.02,2.41-2.06,4.78-3.27,6.89c-0.53,1.13-1.23,2.11-1.87,3.1l-0.95,1.5l-1.08,1.38c-0.27,0.38-0.56,0.75-0.85,1.12
	c-49.86-15.78-103.92-18.26-154.97-6.83c-15.94,3.57-32.34,8.91-43.54,20.8c-11.19,11.89-15.07,32.05-4.53,44.53
	c5.03,5.95,12.4,9.31,19.52,12.49c78.89,35.16,157.78,70.31,236.67,105.47c18.52,8.25,40.11,16.5,58.26,7.47
	C507.67,403.13,509.3,368.67,500.75,343.03z"/>
</svg>
